<svg width="103" height="37" viewBox="0 0 103 37" fill="none" xmlns="http://www.w3.org/2000/svg">
<path d="M6.43248 1L4.22553 3.98792H16.9579V2.32796C16.8221 1.39839 15.7695 1.05533 15.2602 1H6.43248Z" fill="#FF3737"/>
<path d="M19.6741 1L18.6555 3.98792H22.5601L23.409 1H19.6741Z" fill="#FF3737"/>
<path d="M18.316 5.64788L13.7324 20.9195H22.8997L23.9183 17.9315H18.6555L22.0508 5.64788H18.316Z" fill="#FF3737"/>
<path d="M27.6531 1L26.1252 3.98792H32.5763V1H27.6531Z" fill="#FF3737"/>
<path d="M39.0273 1L36.8204 3.98792H49.5527V2.32796C49.5527 1.53119 48.6473 1.11066 48.1946 1H39.0273Z" fill="#FF3737"/>
<path d="M52.6085 1L50.5713 3.98792H61.6061L62.2851 1H52.6085Z" fill="#FF3737"/>
<path d="M54.9852 5.64788H51.2504L46.497 20.9195H56.5131L57.3619 17.9315H51.4202L52.948 12.9517H58.8898L59.3991 9.96376H53.9666L54.9852 5.64788Z" fill="#FF3737"/>
<path fill-rule="evenodd" clip-rule="evenodd" d="M1 20.9195L5.41389 5.64788H8.80918L7.79059 9.63177H11.3557L12.7138 5.64788H16.4486L15.2602 9.96376C15.2037 10.1851 14.9886 10.6277 14.5812 10.6277H13.7324V11.2917C14.0153 11.4577 14.5472 11.9557 14.4114 12.6197C14.2756 12.6197 12.8835 17.3782 12.2045 19.7575C12.1479 20.1448 11.831 20.9195 11.0161 20.9195H1ZM7.11154 12.6197L5.41389 17.9315H8.13012C8.945 17.5332 9.37507 16.9909 9.48824 16.7696L10.3371 14.1137C10.7445 12.7857 9.94095 12.5644 9.48824 12.6197H7.11154Z" fill="#FF3737"/>
<path fill-rule="evenodd" clip-rule="evenodd" d="M25.6159 5.64788L21.3718 16.2716H29.0112V20.9195H33.0856H43.1017C44.5956 20.9195 45.3086 18.9275 45.4784 17.9315L49.0435 5.64788H45.4784L42.0831 16.6036C41.8115 17.5332 41.1777 17.8762 40.8947 17.9315H38.0087L41.5738 5.64788H38.0087L33.0856 20.9195L32.5763 5.64788H25.6159ZM29.0112 6.64385L26.1252 12.9517H29.0112V6.64385Z" fill="#FF3737"/>
<path d="M89.4354 28.2296L87.0728 35.895H91.0462L92.5497 31.1697H96.6305L95.2344 35.895H99.1005C100.475 32.1988 100.103 30.8547 99.7448 30.6447C101.205 29.8887 101.642 28.7196 101.678 28.2296H89.4354Z" fill="#FF3737"/>
<path d="M90.4019 24.2394L88.6837 26.8645H102C102 24.9324 100.998 24.3094 100.497 24.2394H90.4019Z" fill="#FF3737"/>
<path d="M76.5486 28.3346L74.5082 35.895H84.6028L85.3546 32.9548H79.8777L80.3072 31.1697H85.9989L86.7506 28.3346H76.5486Z" fill="#FF3737"/>
<path d="M77.7299 24.3444L75.9043 26.9695H87.0728L87.8245 24.3444H77.7299Z" fill="#FF3737"/>
<path d="M55.0795 28.3346L52.9317 35.895H61.3081L63.5633 33.1649H57.8716L59.1603 28.3346H55.0795Z" fill="#FF3737"/>
<path d="M56.1534 24.3444L55.5091 26.9695H59.5899L60.2342 24.3444H56.1534Z" fill="#FF3737"/>
<path d="M65.791 28.3346L63.6432 35.895H72.0196L74.2748 33.1649H68.5832L69.8718 28.3346H65.791Z" fill="#FF3737"/>
<path d="M66.8649 24.3444L66.2206 26.9695H70.3014L70.9457 24.3444H66.8649Z" fill="#FF3737"/>
<path d="M44.8069 24.3444C43.0886 24.8484 42.3011 26.3745 42.1221 27.0745H53.3981V25.7095C53.3981 25.0374 52.4673 24.5194 52.002 24.3444H44.8069Z" fill="#FF3737"/>
<path d="M45.8808 28.2296H41.7999C40.6831 32.2618 40.6187 33.6199 40.726 33.7949C41.0697 35.391 42.6591 35.93 43.4108 36H47.4916C51.0999 36 52.8611 30.8197 53.2907 28.2296H49.3172L48.0286 32.4298C47.8567 32.9338 47.599 33.1999 47.4916 33.2699H44.8069C44.4632 33.0178 44.5205 32.6048 44.5921 32.4298L45.8808 28.2296Z" fill="#FF3737"/>
<path d="M28.1246 28.2296L25.8694 36H29.8429L31.2389 31.3798H35.3198L33.9237 36H37.8971C39.1858 32.3878 38.8636 30.9947 38.5415 30.7497C39.7442 30.1617 40.2597 28.8246 40.3671 28.2296H28.1246Z" fill="#FF3737"/>
<path d="M29.0911 24.3444L27.3729 27.0745H40.5819C40.7537 25.3104 39.7943 24.5194 39.2932 24.3444H29.0911Z" fill="#FF3737"/>
<path d="M26.7286 26.9695L27.4803 24.3444H19.1039C17.8152 24.3444 16.7771 26.0945 16.4191 26.9695H26.7286Z" fill="#FF3737"/>
<path d="M19.1039 31.7998L20.2852 28.3346H15.9896C15.2164 31.5268 14.9515 33.2349 14.9157 33.6899C15.1734 35.202 16.8845 35.79 17.7078 35.895H24.1512L25.0103 32.7448C23.4353 32.7798 20.1563 32.8288 19.6408 32.7448C19.1254 32.6608 19.0681 32.0798 19.1039 31.7998Z" fill="#FF3737"/>
<path d="M14.7009 26.9695L15.4526 24.3444H6.53926C5.16467 24.3444 4.0335 26.0945 3.63973 26.9695H14.7009Z" fill="#FF3737"/>
<path d="M11.2644 28.3346H3.31756C3.05983 30.1827 4.21248 30.8547 4.82102 30.9597H8.90184C9.04502 31.0297 9.3314 31.3168 9.3314 31.9048C9.3314 32.4928 9.04502 32.7798 8.90184 32.8498H2.02888L1.16976 35.895H10.7275C14.3358 34.9709 14.2355 31.4498 13.7344 29.8047C12.9612 28.4606 11.7656 28.2646 11.2644 28.3346Z" fill="#FF3737"/>
<path d="M1 20.9195L5.41389 5.64788H8.80918L7.79059 9.63177H11.3557L12.7138 5.64788H16.4486L15.2602 9.96376C15.2037 10.1851 14.9886 10.6277 14.5812 10.6277H13.7324V11.2917C14.0153 11.4577 14.5472 11.9557 14.4114 12.6197C14.2756 12.6197 12.8835 17.3782 12.2045 19.7575C12.1479 20.1448 11.831 20.9195 11.0161 20.9195M1 20.9195C4.28212 20.9195 10.8803 20.9195 11.0161 20.9195M1 20.9195H11.0161M33.0856 20.9195L32.5763 5.64788H25.6159L21.3718 16.2716H29.0112V20.9195H33.0856ZM33.0856 20.9195H43.1017C44.5956 20.9195 45.3086 18.9275 45.4784 17.9315L49.0435 5.64788H45.4784L42.0831 16.6036C41.8115 17.5332 41.1777 17.8762 40.8947 17.9315H38.0087L41.5738 5.64788H38.0087L33.0856 20.9195ZM5.41389 17.9315L7.11154 12.6197H9.48824C9.94095 12.5644 10.7445 12.7857 10.3371 14.1137L9.48824 16.7696C9.37507 16.9909 8.945 17.5332 8.13012 17.9315H5.41389ZM4.22553 3.98792L6.43248 1H15.2602C15.7695 1.05533 16.8221 1.39839 16.9579 2.32796V3.98792H4.22553ZM18.6555 3.98792L19.6741 1H23.409L22.5601 3.98792H18.6555ZM13.7324 20.9195L18.316 5.64788H22.0508L18.6555 17.9315H23.9183L22.8997 20.9195H13.7324ZM26.1252 12.9517L29.0112 6.64385V12.9517H26.1252ZM26.1252 3.98792L27.6531 1H32.5763V3.98792H26.1252ZM36.8204 3.98792L39.0273 1H48.1946C48.6473 1.11066 49.5528 1.53119 49.5528 2.32796V3.98792H36.8204ZM50.5713 3.98792L52.6085 1H62.2851L61.6061 3.98792H50.5713ZM51.2504 5.64788H54.9852L53.9666 9.96376H59.3991L58.8898 12.9517H52.948L51.4202 17.9315H57.3619L56.5131 20.9195H46.497L51.2504 5.64788ZM87.0728 35.895L89.4354 28.2296H101.678C101.642 28.7196 101.205 29.8887 99.7448 30.6447C100.103 30.8547 100.475 32.1988 99.1005 35.895H95.2344L96.6305 31.1697H92.5497L91.0462 35.895H87.0728ZM88.6837 26.8645L90.4019 24.2394H100.497C100.998 24.3094 102 24.9324 102 26.8645H88.6837ZM74.5082 35.895L76.5486 28.3346H86.7506L85.9989 31.1697H80.3072L79.8777 32.9548H85.3546L84.6028 35.895H74.5082ZM75.9043 26.9695L77.7299 24.3444H87.8245L87.0728 26.9695H75.9043ZM52.9317 35.895L55.0795 28.3346H59.1603L57.8716 33.1649H63.5633L61.3081 35.895H52.9317ZM55.5091 26.9695L56.1534 24.3444H60.2342L59.5899 26.9695H55.5091ZM63.6432 35.895L65.791 28.3346H69.8719L68.5832 33.1649H74.2748L72.0196 35.895H63.6432ZM66.2206 26.9695L66.8649 24.3444H70.9457L70.3014 26.9695H66.2206ZM42.1221 27.0745C42.3011 26.3745 43.0886 24.8484 44.8069 24.3444H52.002C52.4673 24.5194 53.3981 25.0374 53.3981 25.7095V27.0745H42.1221ZM41.7999 28.2296H45.8808L44.5921 32.4298C44.5205 32.6048 44.4632 33.0178 44.8069 33.2699H47.4916C47.599 33.1999 47.8567 32.9338 48.0286 32.4298L49.3172 28.2296H53.2907C52.8611 30.8197 51.0999 36 47.4916 36H43.4108C42.6591 35.93 41.0697 35.391 40.726 33.7949C40.6187 33.6199 40.6831 32.2618 41.7999 28.2296ZM25.8694 36L28.1246 28.2296H40.3671C40.2597 28.8246 39.7442 30.1617 38.5414 30.7497C38.8636 30.9947 39.1858 32.3878 37.8971 36H33.9237L35.3198 31.3798H31.2389L29.8429 36H25.8694ZM27.3729 27.0745L29.0911 24.3444H39.2932C39.7943 24.5194 40.7537 25.3104 40.5819 27.0745H27.3729ZM27.4803 24.3444L26.7286 26.9695H16.4191C16.7771 26.0945 17.8152 24.3444 19.1039 24.3444H27.4803ZM20.2852 28.3346L19.1039 31.7998C19.0681 32.0798 19.1254 32.6608 19.6408 32.7448C20.1563 32.8288 23.4353 32.7798 25.0103 32.7448L24.1512 35.895H17.7078C16.8845 35.79 15.1734 35.202 14.9157 33.6899C14.9515 33.2349 15.2164 31.5268 15.9896 28.3346H20.2852ZM15.4526 24.3444L14.7009 26.9695H3.63973C4.0335 26.0945 5.16467 24.3444 6.53926 24.3444H15.4526ZM3.31756 28.3346H11.2644C11.7656 28.2646 12.9612 28.4606 13.7344 29.8047C14.2355 31.4498 14.3358 34.9709 10.7275 35.895H1.16976L2.02888 32.8498H8.90184C9.04502 32.7798 9.3314 32.4928 9.3314 31.9048C9.3314 31.3168 9.04502 31.0297 8.90184 30.9597H4.82102C4.21248 30.8547 3.05983 30.1827 3.31756 28.3346Z" stroke="black"/>
</svg>
